<svg xmlns="http://www.w3.org/2000/svg" viewBox="0 0 500 500"><g id="freepik--background-simple--inject-2"><path d="M327.83,53.06S248.49,21.89,172.61,65.88,60.28,200.38,28.83,272.82,18.63,420.43,78.41,456.1s98.47-13.38,181-13.52,105.06,12.73,172.29-33.76,76.55-160.45,20.22-246.54S327.83,53.06,327.83,53.06Z" style="fill:#86C232"></path><path d="M327.83,53.06S248.49,21.89,172.61,65.88,60.28,200.38,28.83,272.82,18.63,420.43,78.41,456.1s98.47-13.38,181-13.52,105.06,12.73,172.29-33.76,76.55-160.45,20.22-246.54S327.83,53.06,327.83,53.06Z" style="fill:#fff;opacity:0.7000000000000001"></path></g><g id="freepik--Clouds--inject-2"><path d="M418.62,65.36c-1.94-1.06-2.82-.18-3.53-1.06s1.94-3.17-3.35-5.46c0,0-.35-4.94-7.58-5.12s-5.28,4.94-7.22,6.17-2.47-.7-4.41.53-1.06,3.7-2.64,4.06-3.7-1.59-5.64-.36-1.94,2.29-2.82,2.29-2.64-.7-3.7,0S375.44,68,375.44,68H420A2.27,2.27,0,0,0,418.62,65.36Z" style="fill:none;stroke:#92989b;stroke-linecap:round;stroke-linejoin:round"></path><path d="M392.24,64.63a5.41,5.41,0,0,1-.79.37" style="fill:none;stroke:#92989b;stroke-linecap:round;stroke-linejoin:round"></path><path d="M401.78,56.4a3,3,0,0,0-1.72,2.15c-.33,1.61-1.08,2.69-1.94,2.8s-4.09-.22-4.62,1a4.64,4.64,0,0,0-.31,1.08" style="fill:none;stroke:#92989b;stroke-linecap:round;stroke-linejoin:round"></path><line x1="387.77" y1="64.24" x2="390.87" y2="64.24" style="fill:none;stroke:#92989b;stroke-linecap:round;stroke-linejoin:round"></line><path d="M415.09,64.24h20.84s1.68-5-4.46-8.37-8.94-.56-11.17-3.35,6.14-10.05-10.61-17.31c0,0-1.12-15.64-24-16.2s-16.76,15.64-22.9,19.55-7.81-2.24-14,1.67S345.47,52,340.45,53.08s-11.73-5-17.87-1.12-6.14,7.26-8.94,7.26-8.37-2.23-11.72,0-7.26,5-7.26,5h89.59" style="fill:none;stroke:#92989b;stroke-linecap:round;stroke-linejoin:round"></path><path d="M347.89,53.57a17.86,17.86,0,0,1-2.49,1.18" style="fill:none;stroke:#92989b;stroke-linecap:round;stroke-linejoin:round"></path><path d="M350.92,49.66a15.06,15.06,0,0,1,1-3.43c1.7-3.75,11.92-2.72,14.65-3.06s5.11-3.75,6.13-8.86a9.54,9.54,0,0,1,5.46-6.82" style="fill:none;stroke:#92989b;stroke-linecap:round;stroke-linejoin:round"></path><path d="M125.32,64.8c-2.8-1.53-4.07-.26-5.09-1.53s2.8-4.58-4.83-7.89c0,0-.51-7.12-10.94-7.37S96.83,55.13,94,56.91s-3.56-1-6.36.76S86.14,63,83.85,63.53s-5.34-2.29-8.14-.51-2.8,3.3-4.07,3.3-3.82-1-5.34,0S63,68.61,63,68.61h64.37S128.12,66.32,125.32,64.8Z" style="fill:none;stroke:#92989b;stroke-linecap:round;stroke-linejoin:round"></path><path d="M87.24,63.75a8.66,8.66,0,0,1-1.13.54" style="fill:none;stroke:#92989b;stroke-linecap:round;stroke-linejoin:round"></path><path d="M101,51.87A4.33,4.33,0,0,0,98.53,55c-.47,2.33-1.55,3.89-2.79,4s-5.9-.31-6.68,1.4A7,7,0,0,0,88.62,62" style="fill:none;stroke:#92989b;stroke-linecap:round;stroke-linejoin:round"></path><path d="M412.2,215.72c-2.12-1.15-3.08-.19-3.85-1.15s2.12-3.47-3.66-6c0,0-.39-5.39-8.29-5.59s-5.78,5.4-7.9,6.75-2.7-.77-4.82.58-1.15,4-2.89,4.43-4.05-1.73-6.16-.39-2.12,2.51-3.09,2.51-2.89-.77-4.05,0-2.5,1.73-2.5,1.73h48.76S414.32,216.88,412.2,215.72Z" style="fill:none;stroke:#92989b;stroke-linecap:round;stroke-linejoin:round"></path><path d="M383.36,214.93a7.05,7.05,0,0,1-.86.41" style="fill:none;stroke:#92989b;stroke-linecap:round;stroke-linejoin:round"></path><path d="M393.79,205.93a3.29,3.29,0,0,0-1.88,2.35c-.35,1.77-1.18,2.94-2.12,3.06s-4.47-.24-5.05,1.06a4.63,4.63,0,0,0-.33,1.18" style="fill:none;stroke:#92989b;stroke-linecap:round;stroke-linejoin:round"></path></g><g id="freepik--Landscape--inject-2"><line x1="13.07" y1="343.55" x2="384.58" y2="436.26" style="fill:none;stroke:gray;stroke-linecap:round;stroke-linejoin:round"></line><line x1="261.93" y1="406.13" x2="490" y2="305.5" style="fill:none;stroke:gray;stroke-linecap:round;stroke-linejoin:round"></line><path d="M23.4,307.27S39.7,308.88,48,319c0,0,8.73-11.71,24.4-11.47a31.68,31.68,0,1,0-49-.22Z" style="fill:#86C232"></path><path d="M23.4,307.27S39.7,308.88,48,319c0,0,8.73-11.71,24.4-11.47a31.68,31.68,0,1,0-49-.22Z" style="fill:#fff;opacity:0.4"></path><polygon points="49.03 352.69 47.42 269.85 47.02 352.19 49.03 352.69" style="fill:#828282"></polygon><path d="M48.24,315.91S53.75,306,63.65,303c0,0-10.45,2.47-15.68,11Z" style="fill:#828282"></path><path d="M47.83,288.4s5.92-10.46,15.82-13.48c0,0-10.55,2.87-15.78,11.4Z" style="fill:#828282"></path><path d="M48,302.23S53.75,292,63.65,289c0,0-10.45,2.47-15.68,11Z" style="fill:#828282"></path><path d="M47.43,295s-5.31-9.9-14.87-12.93c0,0,10.09,2.48,15.13,11Z" style="fill:#828282"></path><path d="M47.43,308.75s-5.31-9.9-14.87-12.93c0,0,10.09,2.48,15.13,11Z" style="fill:#828282"></path><path d="M73.59,334.32s10.4,1,15.68,7.48a20.14,20.14,0,0,1,15.58-7.32,20.22,20.22,0,1,0-31.27-.14Z" style="fill:#86C232"></path><path d="M73.59,334.32s10.4,1,15.68,7.48a20.14,20.14,0,0,1,15.58-7.32,20.22,20.22,0,1,0-31.27-.14Z" style="fill:#fff;opacity:0.2"></path><polygon points="89.95 363.32 88.92 310.43 88.67 363 89.95 363.32" style="fill:#828282"></polygon><path d="M89.45,339.84s3.51-6.32,9.84-8.26c0,0-6.68,1.58-10,7Z" style="fill:#828282"></path><path d="M89.19,322.27s3.77-6.67,10.1-8.6c0,0-6.74,1.83-10.08,7.27Z" style="fill:#828282"></path><path d="M89.29,331.11s3.67-6.55,10-8.48c0,0-6.68,1.58-10,7Z" style="fill:#828282"></path><path d="M88.93,326.49s-3.39-6.32-9.49-8.26c0,0,6.44,1.58,9.66,7Z" style="fill:#828282"></path><path d="M88.93,335.27S85.54,329,79.44,327c0,0,6.44,1.58,9.66,7Z" style="fill:#828282"></path><path d="M218.26,370s10.41,1,15.68,7.48a20.17,20.17,0,0,1,15.59-7.32,20.23,20.23,0,1,0-31.27-.14Z" style="fill:#86C232"></path><path d="M218.26,370s10.41,1,15.68,7.48a20.17,20.17,0,0,1,15.59-7.32,20.23,20.23,0,1,0-31.27-.14Z" style="fill:#fff;opacity:0.4"></path><polygon points="234.63 399.04 233.6 346.15 233.34 398.72 234.63 399.04" style="fill:#828282"></polygon><path d="M234.13,375.56s3.51-6.33,9.83-8.26c0,0-6.67,1.58-10,7Z" style="fill:#828282"></path><path d="M233.86,358s3.78-6.67,10.1-8.6c0,0-6.73,1.83-10.07,7.27Z" style="fill:#828282"></path><path d="M234,366.82s3.67-6.54,10-8.48c0,0-6.67,1.58-10,7Z" style="fill:#828282"></path><path d="M233.61,362.21s-3.39-6.33-9.49-8.26c0,0,6.44,1.58,9.66,7Z" style="fill:#828282"></path><path d="M233.61,371s-3.39-6.32-9.49-8.26c0,0,6.44,1.59,9.66,7Z" style="fill:#828282"></path><path d="M371.24,322.42s10.4,1,15.68,7.48a20.14,20.14,0,0,1,15.58-7.32,20.23,20.23,0,1,0-31.26-.14Z" style="fill:#86C232"></path><path d="M371.24,322.42s10.4,1,15.68,7.48a20.14,20.14,0,0,1,15.58-7.32,20.23,20.23,0,1,0-31.26-.14Z" style="fill:#fff;opacity:0.2"></path><polygon points="387.6 350.56 386.57 298.52 386.32 351.1 387.6 350.56" style="fill:#828282"></polygon><path d="M387.1,327.93s3.51-6.32,9.84-8.25c0,0-6.68,1.58-10,7Z" style="fill:#828282"></path><path d="M386.84,310.37s3.77-6.68,10.1-8.61c0,0-6.74,1.83-10.08,7.28Z" style="fill:#828282"></path><path d="M386.94,319.2s3.67-6.55,10-8.48c0,0-6.68,1.58-10,7Z" style="fill:#828282"></path><path d="M386.58,314.58s-3.39-6.32-9.49-8.25c0,0,6.44,1.58,9.66,7Z" style="fill:#828282"></path><path d="M386.58,323.37s-3.39-6.33-9.49-8.26c0,0,6.44,1.58,9.66,7Z" style="fill:#828282"></path><path d="M406.21,296.88s13.45,1.33,20.27,9.67a26,26,0,0,1,20.15-9.46,26.16,26.16,0,1,0-40.42-.19Z" style="fill:#86C232"></path><path d="M406.21,296.88s13.45,1.33,20.27,9.67a26,26,0,0,1,20.15-9.46,26.16,26.16,0,1,0-40.42-.19Z" style="fill:#fff;opacity:0.4"></path><polygon points="427.37 333.27 426.04 265.99 425.71 333.96 427.37 333.27" style="fill:#828282"></polygon><path d="M426.72,304s4.54-8.18,12.72-10.67c0,0-8.63,2-12.95,9.08Z" style="fill:#828282"></path><path d="M426.38,281.3s4.88-8.63,13.06-11.13c0,0-8.71,2.37-13,9.41Z" style="fill:#828282"></path><path d="M426.51,292.72s4.75-8.47,12.93-11c0,0-8.63,2.05-12.95,9.09Z" style="fill:#828282"></path><path d="M426.05,286.75s-4.39-8.18-12.27-10.67c0,0,8.32,2,12.49,9.08Z" style="fill:#828282"></path><path d="M426.05,298.1s-4.39-8.17-12.27-10.67c0,0,8.32,2.05,12.49,9.09Z" style="fill:#828282"></path></g><g id="freepik--Plants--inject-2"><path d="M80.82,460.11a9.62,9.62,0,0,0-5.35-6.29,63.26,63.26,0,0,0-9.55-3.73,26.83,26.83,0,0,0,5.82,6.29A54.5,54.5,0,0,0,80.82,461" style="fill:#86C232"></path><path d="M96.9,470.59a9.62,9.62,0,0,0-5.36-6.29A62.59,62.59,0,0,0,82,460.58a26.83,26.83,0,0,0,5.82,6.29,54.07,54.07,0,0,0,9.09,4.65" style="fill:#86C232"></path><path d="M84.55,456.15a9.62,9.62,0,0,0-5.36-6.29,63.26,63.26,0,0,0-9.55-3.73,26.74,26.74,0,0,0,5.83,6.29,54.5,54.5,0,0,0,9.08,4.66" style="fill:#86C232"></path><path d="M99.92,465.93a9.55,9.55,0,0,0-5.35-6.28A63.26,63.26,0,0,0,85,455.92a26.83,26.83,0,0,0,5.82,6.29,54.5,54.5,0,0,0,9.08,4.66" style="fill:#86C232"></path><path d="M87.35,451.88A10.7,10.7,0,0,0,83.13,445,41.88,41.88,0,0,0,75.62,441a28.32,28.32,0,0,0,4.58,6.84,39.81,39.81,0,0,0,7.15,5.07" style="fill:#86C232"></path><path d="M101.22,461.6A10.7,10.7,0,0,0,96,455.49a41.87,41.87,0,0,0-8-2.86,28.21,28.21,0,0,0,5.57,6.06,39.85,39.85,0,0,0,7.83,3.91" style="fill:#86C232"></path><path d="M90.84,446.75a10.74,10.74,0,0,0-4.21-6.84,42.58,42.58,0,0,0-7.51-4.05,28,28,0,0,0,4.58,6.84,40.08,40.08,0,0,0,7.14,5.07" style="fill:#86C232"></path><path d="M106.06,453.83a10.69,10.69,0,0,0-6.18-5.13,42.7,42.7,0,0,0-8.42-1.43,28.49,28.49,0,0,0,6.54,5,39.77,39.77,0,0,0,8.39,2.51" style="fill:#86C232"></path><path d="M93.87,442a9.43,9.43,0,0,0-3.13-5.77,29.88,29.88,0,0,0-5.56-3.42,24.4,24.4,0,0,0,3.39,5.77,29.51,29.51,0,0,0,5.3,4.27" style="fill:#86C232"></path><path d="M105.72,448a9.41,9.41,0,0,0-5-4.21,30.49,30.49,0,0,0-6.44-1.14,24.27,24.27,0,0,0,5.28,4.12,29.74,29.74,0,0,0,6.49,2" style="fill:#86C232"></path><path d="M96.66,436.66a9.39,9.39,0,0,0-3.12-5.77A30.8,30.8,0,0,0,88,427.47a24,24,0,0,0,3.4,5.77,29.85,29.85,0,0,0,5.29,4.28" style="fill:#86C232"></path><path d="M109.13,442.52a9.47,9.47,0,0,0-5.14-4.08,30.56,30.56,0,0,0-6.47-.95,24.43,24.43,0,0,0,5.39,4,29.77,29.77,0,0,0,6.55,1.85" style="fill:#86C232"></path><path d="M100.86,431.54a9.41,9.41,0,0,0-3.13-5.77c-2.71-2.14-3.47-2.72-3.47-2.72a6.37,6.37,0,0,0,1.3,5.07,30,30,0,0,0,5.3,4.27" style="fill:#86C232"></path><path d="M110.63,437.62a9.42,9.42,0,0,0-5.13-4.1l-4.25-1.15a6.33,6.33,0,0,0,3.17,4.16,29.82,29.82,0,0,0,6.54,1.88" style="fill:#86C232"></path><path d="M104.62,427.39a9.43,9.43,0,0,0-1.14-6.46L101,417.25a6.35,6.35,0,0,0-.37,5.22,29.79,29.79,0,0,0,3.68,5.73" style="fill:#86C232"></path><path d="M114.43,432.35a9.42,9.42,0,0,0-5.45-3.66c-3.4-.63-4.34-.79-4.34-.79a6.33,6.33,0,0,0,3.51,3.88,29.58,29.58,0,0,0,6.67,1.32" style="fill:#86C232"></path><path d="M109.45,424.2a9.43,9.43,0,0,0,.28-6.55c-1.24-3.23-1.59-4.12-1.59-4.12a6.35,6.35,0,0,0-1.48,5,29.65,29.65,0,0,0,2.35,6.39" style="fill:#86C232"></path><path d="M118.65,428.1a9.39,9.39,0,0,0-5.62-3.38l-4.37-.58a6.37,6.37,0,0,0,3.69,3.71,29.94,29.94,0,0,0,6.74,1" style="fill:#86C232"></path><path d="M112.94,422.57a9.41,9.41,0,0,0,6.14-2.31c2.49-2.4,3.17-3.07,3.17-3.07a6.38,6.38,0,0,0-5.2.6,29.6,29.6,0,0,0-5,4.67" style="fill:#86C232"></path><path d="M79.89,462.47a.51.51,0,0,1-.39-.18.49.49,0,0,1,.08-.7A53.76,53.76,0,0,0,92,445.21c5.32-10.63,13.46-19.89,20.27-23a.5.5,0,1,1,.42.9c-6.62,3.07-14.57,12.16-19.79,22.6a54.85,54.85,0,0,1-12.71,16.7A.5.5,0,0,1,79.89,462.47Z" style="fill:#86C232"></path><path d="M436.6,452.6a9.55,9.55,0,0,0-5.35-6.28,63.26,63.26,0,0,0-9.55-3.73,26.83,26.83,0,0,0,5.82,6.29,54.5,54.5,0,0,0,9.08,4.66" style="fill:#86C232"></path><path d="M452.68,463.09a9.62,9.62,0,0,0-5.36-6.29,63.26,63.26,0,0,0-9.55-3.73,26.83,26.83,0,0,0,5.82,6.29,54.44,54.44,0,0,0,9.09,4.66" style="fill:#86C232"></path><path d="M440.33,448.64a9.59,9.59,0,0,0-5.36-6.28,62.82,62.82,0,0,0-9.55-3.73,27,27,0,0,0,5.83,6.29,54.5,54.5,0,0,0,9.08,4.66" style="fill:#86C232"></path><path d="M455.71,458.43a9.62,9.62,0,0,0-5.36-6.29,63.26,63.26,0,0,0-9.55-3.73,26.83,26.83,0,0,0,5.82,6.29,54.44,54.44,0,0,0,9.09,4.66" style="fill:#86C232"></path><path d="M443.13,444.37a10.7,10.7,0,0,0-4.22-6.84,42.31,42.31,0,0,0-7.5-4,28.34,28.34,0,0,0,4.57,6.84,40.09,40.09,0,0,0,7.15,5.06" style="fill:#86C232"></path><path d="M457,454.1a10.7,10.7,0,0,0-5.21-6.12,42.69,42.69,0,0,0-8-2.86,28.21,28.21,0,0,0,5.57,6.06,40.11,40.11,0,0,0,7.84,3.92" style="fill:#86C232"></path><path d="M446.62,439.25a10.72,10.72,0,0,0-4.21-6.84,41.88,41.88,0,0,0-7.51-4.06,28,28,0,0,0,4.58,6.84,39.51,39.51,0,0,0,7.14,5.07" style="fill:#86C232"></path><path d="M461.84,446.32a10.73,10.73,0,0,0-6.18-5.13,42.09,42.09,0,0,0-8.41-1.42,28.12,28.12,0,0,0,6.53,5,39.77,39.77,0,0,0,8.39,2.51" style="fill:#86C232"></path><path d="M449.65,434.51a9.43,9.43,0,0,0-3.13-5.77,30.54,30.54,0,0,0-5.56-3.42,24.2,24.2,0,0,0,3.39,5.77,29.77,29.77,0,0,0,5.3,4.28" style="fill:#86C232"></path><path d="M461.5,440.46a9.41,9.41,0,0,0-5-4.22,30.08,30.08,0,0,0-6.44-1.13,24.55,24.55,0,0,0,5.28,4.12,30.09,30.09,0,0,0,6.5,2" style="fill:#86C232"></path><path d="M452.44,429.15a9.35,9.35,0,0,0-3.12-5.76,30.13,30.13,0,0,0-5.57-3.42,24.6,24.6,0,0,0,3.4,5.77,30.1,30.1,0,0,0,5.29,4.27" style="fill:#86C232"></path><path d="M464.91,435a9.42,9.42,0,0,0-5.14-4.07,30.22,30.22,0,0,0-6.47-1,24.1,24.1,0,0,0,5.39,4,29.77,29.77,0,0,0,6.55,1.85" style="fill:#86C232"></path><path d="M456.64,424a9.43,9.43,0,0,0-3.13-5.77c-2.71-2.14-3.47-2.72-3.47-2.72a6.37,6.37,0,0,0,1.3,5.07,29.77,29.77,0,0,0,5.3,4.28" style="fill:#86C232"></path><path d="M466.41,430.11a9.46,9.46,0,0,0-5.12-4.1L457,424.86A6.31,6.31,0,0,0,460.2,429a29.82,29.82,0,0,0,6.54,1.88" style="fill:#86C232"></path><path d="M460.4,419.88a9.43,9.43,0,0,0-1.14-6.46l-2.44-3.68a6.37,6.37,0,0,0-.37,5.23,29.93,29.93,0,0,0,3.68,5.72" style="fill:#86C232"></path><path d="M470.21,424.84a9.38,9.38,0,0,0-5.45-3.65l-4.34-.8a6.36,6.36,0,0,0,3.51,3.89,30.36,30.36,0,0,0,6.68,1.32" style="fill:#86C232"></path><path d="M465.23,416.7a9.46,9.46,0,0,0,.28-6.56c-1.24-3.23-1.59-4.11-1.59-4.11a6.32,6.32,0,0,0-1.48,5,29.65,29.65,0,0,0,2.35,6.39" style="fill:#86C232"></path><path d="M474.43,420.59a9.39,9.39,0,0,0-5.62-3.38l-4.37-.58a6.34,6.34,0,0,0,3.69,3.71,30.21,30.21,0,0,0,6.74,1" style="fill:#86C232"></path><path d="M468.72,415.07a9.41,9.41,0,0,0,6.14-2.31c2.49-2.4,3.17-3.07,3.17-3.07a6.36,6.36,0,0,0-5.2.59,29.79,29.79,0,0,0-4.95,4.67" style="fill:#86C232"></path><path d="M435.67,455a.52.52,0,0,1-.39-.19.5.5,0,0,1,.08-.7,53.79,53.79,0,0,0,12.44-16.37c5.32-10.63,13.46-19.9,20.27-23.06a.5.5,0,1,1,.42.9c-6.61,3.08-14.57,12.16-19.79,22.6A55,55,0,0,1,436,454.86.56.56,0,0,1,435.67,455Z" style="fill:#86C232"></path><path d="M53.91,449.07s-4.86-1.73-10.41,2a81.24,81.24,0,0,0-10.19,8.28A34.25,34.25,0,0,0,44,456.84c4.66-2.16,10.94-7.18,10.94-7.18" style="fill:#86C232"></path><path d="M78,443.31s-4.23-2.94-10.56-.8a81.24,81.24,0,0,0-12,5.33,34.38,34.38,0,0,0,11,.37c5.07-.86,12.44-4.06,12.44-4.06" style="fill:#86C232"></path><path d="M51.85,442.41s-4.85-1.73-10.4,2a81.78,81.78,0,0,0-10.2,8.28A34.44,34.44,0,0,0,42,450.17C46.61,448,52.89,443,52.89,443" style="fill:#86C232"></path><path d="M74,432.07s-4.86-1.73-10.4,2a79.91,79.91,0,0,0-10.2,8.28,34.41,34.41,0,0,0,10.69-2.51c4.67-2.16,11-7.18,11-7.18" style="fill:#86C232"></path><path d="M48.86,436.59a13.72,13.72,0,0,0-10.29.36,54.06,54.06,0,0,0-9.27,5.81s6.07.48,10.52-.78A51.23,51.23,0,0,0,50,437.23" style="fill:#86C232"></path><path d="M68.48,427.28a13.72,13.72,0,0,0-10.11,1.94,53.59,53.59,0,0,0-8.28,7.15s6.08-.45,10.28-2.37a51.14,51.14,0,0,0,9.32-6.26" style="fill:#86C232"></path><path d="M45.36,429.45a13.75,13.75,0,0,0-10.29.37,53.66,53.66,0,0,0-9.27,5.8s6.07.48,10.52-.77a51.64,51.64,0,0,0,10.17-4.76" style="fill:#86C232"></path><path d="M62.88,417a13.73,13.73,0,0,0-9.63,3.65,54.65,54.65,0,0,0-6.92,8.47s5.91-1.49,9.72-4.11a50.83,50.83,0,0,0,8.1-7.76" style="fill:#86C232"></path><path d="M42,423.08a12.05,12.05,0,0,0-8.41-.17,38.32,38.32,0,0,0-7.33,4,31.07,31.07,0,0,0,8.58-.13,38.43,38.43,0,0,0,8.11-3.2" style="fill:#86C232"></path><path d="M56.13,413.63a12.08,12.08,0,0,0-7.88,2.93A38.88,38.88,0,0,0,42.91,423a31.32,31.32,0,0,0,7.93-3.28,38.36,38.36,0,0,0,6.37-5.95" style="fill:#86C232"></path><path d="M37.8,416.57a12.11,12.11,0,0,0-8.41-.17,39.25,39.25,0,0,0-7.34,4,31.08,31.08,0,0,0,8.58-.13,37.79,37.79,0,0,0,8.12-3.2" style="fill:#86C232"></path><path d="M52.22,406.39a12.09,12.09,0,0,0-7.8,3.15,38.9,38.9,0,0,0-5.16,6.6,31.42,31.42,0,0,0,7.84-3.49,38.62,38.62,0,0,0,6.2-6.13" style="fill:#86C232"></path><path d="M34.74,408.66a12.05,12.05,0,0,0-8.41-.17l-5.23,2.14a8.18,8.18,0,0,0,6.48,1.77,38.43,38.43,0,0,0,8.11-3.2" style="fill:#86C232"></path><path d="M47.71,401.62a12.07,12.07,0,0,0-7.82,3.11l-4,4a8.14,8.14,0,0,0,6.65-.89,38.4,38.4,0,0,0,6.23-6.1" style="fill:#86C232"></path><path d="M32.5,401.83A12.13,12.13,0,0,0,24.57,399l-5.64.39a8.16,8.16,0,0,0,5.59,3.71,38,38,0,0,0,8.71-.47" style="fill:#86C232"></path><path d="M44.23,394a12.07,12.07,0,0,0-7.52,3.76c-2.85,3.39-3.63,4.34-3.63,4.34a8.17,8.17,0,0,0,6.55-1.45,38.3,38.3,0,0,0,5.7-6.61" style="fill:#86C232"></path><path d="M32,394.44A12.09,12.09,0,0,0,24.88,390c-4.38-.67-5.59-.84-5.59-.84A8.14,8.14,0,0,0,23.94,394a38.38,38.38,0,0,0,8.61,1.42" style="fill:#86C232"></path><path d="M42.17,386.64a12.06,12.06,0,0,0-7.32,4.13l-3.42,4.51a8.15,8.15,0,0,0,6.47-1.77,38.58,38.58,0,0,0,5.37-6.88" style="fill:#86C232"></path><path d="M32.4,389.51a12.07,12.07,0,0,0,1.31-8.3c-1.1-4.29-1.42-5.48-1.42-5.48a8.17,8.17,0,0,0-2.62,6.18,38.26,38.26,0,0,0,2.06,8.47" style="fill:#86C232"></path><path d="M55.39,451.79a.5.5,0,0,1-.49-.42,69,69,0,0,0-10.39-24.29C36,414.45,30.88,399.54,31.66,390a.5.5,0,0,1,.54-.45.49.49,0,0,1,.46.53c-.77,9.36,4.33,24,12.68,36.46a70.12,70.12,0,0,1,10.55,24.69.5.5,0,0,1-.42.57Z" style="fill:#86C232"></path><path d="M414.56,449.81s-3.86-3.41-10.39-2a80.89,80.89,0,0,0-12.55,3.9,34.25,34.25,0,0,0,10.86,1.64c5.13-.27,12.83-2.58,12.83-2.58" style="fill:#86C232"></path><path d="M439.11,453.44s-2.84-4.3-9.51-4.67a81.18,81.18,0,0,0-13.13.49,34.44,34.44,0,0,0,10.06,4.43c5,1.07,13.05.85,13.05.85" style="fill:#86C232"></path><path d="M415.13,442.86s-3.86-3.41-10.39-2a80.89,80.89,0,0,0-12.55,3.9,34.44,34.44,0,0,0,10.86,1.65c5.13-.27,12.83-2.59,12.83-2.59" style="fill:#86C232"></path><path d="M439.52,441.49s-3.86-3.41-10.39-2a80.89,80.89,0,0,0-12.55,3.9A34.44,34.44,0,0,0,427.44,445c5.13-.27,12.83-2.59,12.83-2.59" style="fill:#86C232"></path><path d="M414.52,436.35a13.72,13.72,0,0,0-9.69-3.49,54.2,54.2,0,0,0-10.76,1.94s5.46,2.7,10.05,3.19a51.17,51.17,0,0,0,11.21-.63" style="fill:#86C232"></path><path d="M436.19,435a13.73,13.73,0,0,0-10.1-2,54.54,54.54,0,0,0-10.34,3.56s5.81,1.84,10.42,1.63a51.13,51.13,0,0,0,11-2.34" style="fill:#86C232"></path><path d="M413.93,428.42a13.75,13.75,0,0,0-9.69-3.49,54,54,0,0,0-10.76,1.94s5.46,2.71,10,3.2a51.23,51.23,0,0,0,11.21-.63" style="fill:#86C232"></path><path d="M434.83,423.35a13.74,13.74,0,0,0-10.29-.2,54.34,54.34,0,0,0-9.57,5.29s6,.81,10.55-.2a51.41,51.41,0,0,0,10.41-4.19" style="fill:#86C232"></path><path d="M413.18,421.26a12.06,12.06,0,0,0-7.74-3.29,38.83,38.83,0,0,0-8.31,1,31.17,31.17,0,0,0,8,3.07,37.72,37.72,0,0,0,8.72.05" style="fill:#86C232"></path><path d="M429.81,417.74a12.12,12.12,0,0,0-8.41-.21,38.73,38.73,0,0,0-7.35,4,31.21,31.21,0,0,0,8.58-.09,38.22,38.22,0,0,0,8.13-3.16" style="fill:#86C232"></path><path d="M411.7,413.65a12.07,12.07,0,0,0-7.74-3.28,38.83,38.83,0,0,0-8.31,1,31.17,31.17,0,0,0,8,3.07,38.35,38.35,0,0,0,8.72.05" style="fill:#86C232"></path><path d="M428.87,409.57a12.06,12.06,0,0,0-8.41,0,38.8,38.8,0,0,0-7.24,4.21,31.19,31.19,0,0,0,8.57-.33,38.49,38.49,0,0,0,8-3.38" style="fill:#86C232"></path><path d="M411.81,405.17a12.06,12.06,0,0,0-7.74-3.29l-5.66.05a8.14,8.14,0,0,0,5.36,4,37.72,37.72,0,0,0,8.72,0" style="fill:#86C232"></path><path d="M426.46,403.46a12.06,12.06,0,0,0-8.41,0c-4.07,1.75-5.19,2.25-5.19,2.25a8.16,8.16,0,0,0,6.51,1.64,38,38,0,0,0,8.05-3.35" style="fill:#86C232"></path><path d="M412.26,398a12,12,0,0,0-6.31-5.56c-4.21-1.37-5.38-1.73-5.38-1.73a8.17,8.17,0,0,0,3.81,5.52,38.22,38.22,0,0,0,8.26,2.8" style="fill:#86C232"></path><path d="M426.05,395.13a12.07,12.07,0,0,0-8.38.7c-3.91,2.08-5,2.67-5,2.67a8.14,8.14,0,0,0,6.62,1.09,38.33,38.33,0,0,0,7.75-4" style="fill:#86C232"></path><path d="M414.56,391a12.07,12.07,0,0,0-5-6.79c-3.82-2.25-4.88-2.86-4.88-2.86a8.16,8.16,0,0,0,2.52,6.22A38.1,38.1,0,0,0,414.7,392" style="fill:#86C232"></path><path d="M426.89,387.5a12.05,12.05,0,0,0-8.33,1.11c-3.8,2.27-4.84,2.91-4.84,2.91a8.13,8.13,0,0,0,6.66.76,38.19,38.19,0,0,0,7.54-4.39" style="fill:#86C232"></path><path d="M416.76,386.53a12.06,12.06,0,0,0,4.3-7.22c.58-4.4.72-5.61.72-5.61a8.16,8.16,0,0,0-4.73,4.75,38.27,38.27,0,0,0-1.24,8.64" style="fill:#86C232"></path><path d="M414.93,452.89a.49.49,0,0,1-.3-.57A69.17,69.17,0,0,0,414,425.9c-3.16-14.87-2.41-30.63,1.88-39.21a.5.5,0,0,1,.89.45c-4.19,8.39-4.91,23.89-1.79,38.55a70.13,70.13,0,0,1,.61,26.84.5.5,0,0,1-.6.38Z" style="fill:#86C232"></path><path d="M473.53,472c-1.35-1.92-8.65-12.33-9.2-12.75a73.8,73.8,0,0,0-7.59-3.94c-.45,0-9.56-4.1-11.53-4.1s-9.11,5.16-9.11,5.16l-5.61,7.28-8.49,3L417.71,472Z" style="fill:#fff;stroke:#263238;stroke-linecap:round;stroke-linejoin:round"></path><path d="M470.68,468l-5.44,2-3.94-.46s-5.92-1.21-6.53-1.06-3.19,1.22-4.4,1.52-7.44-.61-8.2-.61-8.49-5.61-8.49-5.61l4.4-8.65-.16,0c-1.07.73-1.82,1.27-1.82,1.27l-5.61,7.28-8.49,3L417.71,472h55.82Z" style="fill:#263238;stroke:#263238;stroke-linecap:round;stroke-linejoin:round"></path><path d="M455.67,472c-2.08-3-13.4-19.12-14.25-19.76s-11.06-6.11-11.76-6.11-14.82-6.35-17.88-6.35-14.11,8-14.11,8L389,459.06l-13.16,4.59L369.16,472Z" style="fill:#fff;stroke:#263238;stroke-linecap:round;stroke-linejoin:round"></path><path d="M451.26,465.72l-8.43,3.1-6.11-.71s-9.18-1.88-10.12-1.64-4.94,1.88-6.82,2.35-11.53-.94-12.7-.94-13.17-8.7-13.17-8.7l6.82-13.41-.24,0c-1.66,1.13-2.82,2-2.82,2L389,459.06l-13.16,4.59L369.16,472h86.51C455,471,453.27,468.56,451.26,465.72Z" style="fill:#263238;stroke:#263238;stroke-linecap:round;stroke-linejoin:round"></path><path d="M27.64,471.91s5.58-12.33,5.58-13.22,15.27-10.57,15.27-10.57l17.32,2.65s9.69,7.34,10.87,7.34,8.22.29,8.22.29l12,5.87,5,7.64H27.64" style="fill:#fff;stroke:#263238;stroke-linecap:round;stroke-linejoin:round"></path><path d="M33.22,458.69c0,.89-5.58,13.22-5.58,13.22h74.29l-5-7.64-2.65,4.11-21.14,1.77-22-4.41-10-7.63,7.34-10S33.22,457.81,33.22,458.69Z" style="fill:#263238"></path></g><g id="freepik--characters-2--inject-2"><path d="M299.12,153.54s-47.89,9.83-55.05,14.49c-9.66,6.28-15,14.49-10.14,25.11S246,201.35,246,201.35s-5.8,70.51,0,85.48,32.36,17.87,43,15,44.43-9.66,47.33-19.81S333.9,170,332,160.3,318.92,143.4,299.12,153.54Z" style="fill:#263238;stroke:#263238;stroke-linecap:round;stroke-linejoin:round"></path><path d="M233.93,193.14c4.82,10.63,12.07,8.21,12.07,8.21s-5.8,70.51,0,85.48,32.36,17.87,43,15,44.43-9.66,47.33-19.81a43.26,43.26,0,0,0,.74-8.1c-10.54,4.24-22.36,9-34.06,13.42-33.33,12.55-42-3.38-43-25.6s5.32-74.37,1-86.45-16.9-7.24-16.9-7.24C234.41,174.31,229.1,182.52,233.93,193.14Z" style="fill:#fff;stroke:#263238;stroke-linecap:round;stroke-linejoin:round"></path><path d="M246,201.35s11.11-1,11.59-13-6.76-16.9-14.49-11.11-4.35,15,0,15.94,10.14-8.69,6.76-10.62-5.31,1.93-5.31,4.83" style="fill:none;stroke:#263238;stroke-linecap:round;stroke-linejoin:round"></path><path d="M407.83,118.74a51.73,51.73,0,0,1,6.45-11.09c4.35-5.7,9.24-12.08,11.82-11.81s1.9,1.09-.14,3-6,8-6,8,4.88,3.39,5.16,5.29-1.36,3.81-4.21,6a20.76,20.76,0,0,1-5.43,3c-.82.4-3,3.8-3,3.8l-4.34-5.43Z" style="fill:#fff;stroke:#263238;stroke-linecap:round;stroke-linejoin:round"></path><path d="M427.21,109a4.16,4.16,0,0,1,.88,2.65c-.22,1.21-1.87,4.4-2.64,3.74s.22-3.08.33-3.85,0-3.42,0-3.42Z" style="fill:#fff;stroke:#263238;stroke-linecap:round;stroke-linejoin:round"></path><path d="M423.58,104.91s3.52,2.42,3.63,4.07-2.64,5-3.52,5.51-1.43,0-1.21-1l1.1-5s-2-2.64-1.54-3.74S423.58,104.91,423.58,104.91Z" style="fill:#fff;stroke:#263238;stroke-linecap:round;stroke-linejoin:round"></path><path d="M422.48,103.7s3.19,2.42,3.08,4-2.42,6.28-3.41,7-1.77-.77-1.44-1.87.77-4.52.77-4.52L420,106.84" style="fill:#fff;stroke:#263238;stroke-linecap:round;stroke-linejoin:round"></path><path d="M415,109.42a41.06,41.06,0,0,0,6.79-2.17c2.58-1.22,6.79-2.17,7.2-.82s-2.45,2.45-4.89,3.26-3,1.63-3.94,3.67-2.58,4.61-4.75,4.88" style="fill:#fff;stroke:#263238;stroke-linecap:round;stroke-linejoin:round"></path><path d="M271.1,261.93s-2.78,19.49-1.11,33.15,11.33,49.34,9.33,61.34a119.94,119.94,0,0,0,.67,39.33c2.33,12,5.67,42.67,5.67,42.67s-3.67,3.66-3,7,4.66,12.66,4.66,12.66v5.56l19-3.22a81.64,81.64,0,0,0,1.34-8.67c0-2-2.34.33.33-4.33s4.67-9.34,3.33-12.67-5.66-6.33-5-12.67,3.34-51.66,4-59S314,303.42,314,303.42l4.33-2.34s6,78,6,87.67,1,30.33.67,34.67-4.33,13.33-3.33,14.66,4,8.34,4,8.34-.34,4.66-.34,8a26.25,26.25,0,0,0,1.67,7.66l22-3.66s-.67-7.67-1.33-9,3.66-5,3.66-7.67-1-5.33-1-6.33,4.34-10,4.67-16.67-5.33-54-5.33-55.67,10-42.33,10-62.66-7.34-45-7.34-45-32.33,9.33-53.33,6-24.33-4.34-24.33-4.34Z" style="fill:#86C232;stroke:#263238;stroke-linecap:round;stroke-linejoin:round"></path><path d="M352.32,255.42s-32.33,9.33-53.33,6-24.33-4.34-24.33-4.34l-3.56,4.85s-.25,1.78-.56,4.63c4.77,3.24,20.63,12,47.78,8.19,22.49-3.18,32-9.3,35.73-12.88C353.05,257.87,352.32,255.42,352.32,255.42Z" style="fill:#263238;stroke:#263238;stroke-linecap:round;stroke-linejoin:round"></path><polygon points="313.99 271.75 313.65 275.75 324.32 274.42 325.65 269.75 313.99 271.75" style="fill:#fff;stroke:#263238;stroke-linecap:round;stroke-linejoin:round"></polygon><polyline points="287.99 277.08 287.99 269.08 292.99 269.75 292.99 277.75" style="fill:#616161;stroke:#263238;stroke-linecap:round;stroke-linejoin:round"></polyline><path d="M344.66,270.75v-6.67l3.66-2.33s.34,7,.34,8" style="fill:#616161;stroke:#263238;stroke-linecap:round;stroke-linejoin:round"></path><path d="M319,277.42l.33,6s5.34.66,4,3.66a59,59,0,0,1-4,7" style="fill:none;stroke:#263238;stroke-linecap:round;stroke-linejoin:round"></path><path d="M312.32,283.08s15-3,21-6" style="fill:none;stroke:#263238;stroke-linecap:round;stroke-linejoin:round"></path><path d="M325.66,275.75l-.67,4.67s3.33,3,2.33,5.33l-2,4.67" style="fill:none;stroke:#263238;stroke-linecap:round;stroke-linejoin:round"></path><polygon points="318.32 301.08 333.32 294.42 319.87 307.9 318.32 301.08" style="fill:#263238;stroke:#263238;stroke-linecap:round;stroke-linejoin:round"></polygon><path d="M286.66,277.75s-5.67,12.33-13,15.67" style="fill:none;stroke:#263238;stroke-linecap:round;stroke-linejoin:round"></path><path d="M347,271.08a19.25,19.25,0,0,0,8,12.67" style="fill:none;stroke:#263238;stroke-linecap:round;stroke-linejoin:round"></path><polyline points="277.65 320.75 295.32 320.75 295.32 325.08 280.32 325.75" style="fill:none;stroke:#263238;stroke-linecap:round;stroke-linejoin:round"></polyline><path d="M295.32,325.08c0,2.34,2.67,31-1,37.67s-11.33,8.33-12.66,5.33" style="fill:none;stroke:#263238;stroke-linecap:round;stroke-linejoin:round"></path><path d="M357.32,313.75c-1.33,0-9.33,1-9.33,1v5.67l8-2.34" style="fill:none;stroke:#263238;stroke-linecap:round;stroke-linejoin:round"></path><path d="M348,320.42s-6,37-4.33,39.33a3.81,3.81,0,0,0,4,1.67" style="fill:none;stroke:#263238;stroke-linecap:round;stroke-linejoin:round"></path><path d="M332,448.75s9-1,11.67-2S328,442.42,328,442.42c-1,0-1.66-2-.32-4.34s-2.67-2-3.67-.33,5,6.33,3.67,8-.67,6.67,1,6A10.11,10.11,0,0,0,332,448.75Z" style="fill:#263238;stroke:#263238;stroke-linecap:round;stroke-linejoin:round"></path><path d="M301,450.08s-9,2.67-12.33,2.34,16.66-7.34,16.66-7.34S310,445.42,301,450.08Z" style="fill:#263238;stroke:#263238;stroke-linecap:round;stroke-linejoin:round"></path><path d="M346.8,163.71c-.59.16-7.76-1.94-12.81-1.74s-16.89,3.3-17.66,2.33-.6-8.35-.6-8.93,2.15-.78,6.81-3.69,7.38-7,6.6-12.81-5.63-22.71-5.63-22.71-2.14-2.72-7.38-3.11-20.18,5.83-24.84,9.71-6.8,7-4.47,12.61,11.07,19,12,22.13.39,7.18-1.36,8.35-16.69,7.37-17.47,8-5.43,1.74-7.76,9.31,7.76,47,8.34,48.73-9.9,26.2-9.51,30.08,22.13,9.9,40.38,9.32S348,262.9,350.3,260.18s3.49-4.46,2.33-7.37-12-29.7-12-29.7,10.68-8.35,10.68-13.59-5-13.78-5-13.78,25.29-12.07,38.1-23.32,24.28-39.51,26-43a44.85,44.85,0,0,0,2.33-5.24l-4.85-5.43s-18.05,18.83-27.57,27.75S353.6,162,346.8,163.71Z" style="fill:gray;stroke:#263238;stroke-linecap:round;stroke-linejoin:round"></path><polyline points="368.35 173.03 346.22 195.74 352.82 182.93" style="fill:none;stroke:#263238;stroke-linecap:round;stroke-linejoin:round"></polyline><polyline points="404.92 122.04 411.32 127.08 403.67 135.75" style="fill:none;stroke:#263238;stroke-linecap:round;stroke-linejoin:round"></polyline><line x1="298.83" y1="231.74" x2="313.58" y2="225.22" style="fill:none;stroke:#263238;stroke-linecap:round;stroke-linejoin:round"></line><line x1="318.9" y1="224.97" x2="305.84" y2="230.53" style="fill:none;stroke:#263238;stroke-linecap:round;stroke-linejoin:round"></line><path d="M280,173.81s8.29,15.27,9.29,29.61-16.33,36-16.33,36l4.67.66s14.33-18,16.66-31.33-6-38-6-38S282.4,171.2,280,173.81Z" style="fill:#263238;stroke:#263238;stroke-linecap:round;stroke-linejoin:round"></path><path d="M281.58,132.27S275,127,271.1,127.42,262,137.9,264.89,144.5s8.15,9.9,13,6,6.8-9.51,6.8-12.61S281.58,132.27,281.58,132.27Z" style="fill:#263238;stroke:#263238;stroke-linecap:round;stroke-linejoin:round"></path><path d="M278.48,129.16s-8.35-5.63-12.43-3.88a7.59,7.59,0,0,0-4.65,5.24" style="fill:none;stroke:#263238;stroke-linecap:round;stroke-linejoin:round"></path><path d="M320.33,188.42c1.76-5.57,0-17.36.18-24.31-2.25.36-3.91.53-4.18.19-.78-1-.6-8.35-.6-8.93s2.15-.78,6.81-3.69,7.38-7,6.6-12.81-5.63-22.71-5.63-22.71-2.14-2.72-7.38-3.11-20.18,5.82-24.84,9.71-6.8,7-4.47,12.61,11.07,19,12,22.13.39,7.18-1.36,8.35c-.57.38-2.57,1.31-5,2.4.76,2.86,3.64,12.39,9.68,19.73C309.34,196.71,318,195.79,320.33,188.42Z" style="fill:#fff;stroke:#263238;stroke-linecap:round;stroke-linejoin:round"></path><path d="M296.72,119.85s11,4.17,15.58,3.44A74.45,74.45,0,0,0,324,119.83l-.46-3.67Z" style="fill:#263238;stroke:#263238;stroke-linecap:round;stroke-linejoin:round"></path><path d="M300.41,117.32c.65-.26-.78,8.15-4.07,11.26s-5.44,4.08-6.22,5.82-1.16,2.53-2.33,1.56-5.62-.39-5.62-.39l-1.75-2.72S291.09,121,300.41,117.32Z" style="fill:#263238;stroke:#263238;stroke-linecap:round;stroke-linejoin:round"></path><path d="M307.38,127.92c.23,1.21,0,2.27-.55,2.37s-1.13-.81-1.36-2,0-2.27.55-2.37S307.16,126.71,307.38,127.92Z" style="fill:#263238"></path><path d="M320,123.84c.22,1.21,0,2.28-.55,2.37s-1.13-.8-1.36-2,0-2.27.55-2.37S319.78,122.63,320,123.84Z" style="fill:#263238"></path><path d="M316.91,122.56s-1.36,3.69.19,4.27,6.22,3.5,4.27,5.83-5,1.16-5.82,1,0,6.79,0,6.79-4.66,1-7.57-.39a34.1,34.1,0,0,1-5.82-3.69" style="fill:none;stroke:#263238;stroke-linecap:round;stroke-linejoin:round"></path><path d="M303.13,137.12a21.66,21.66,0,0,0,2.91,7c2.14,3.1,3.3.58,3.69-1a11.49,11.49,0,0,0,.39-2.53S303.91,139.84,303.13,137.12Z" style="fill:#263238;stroke:#263238;stroke-linecap:round;stroke-linejoin:round"></path><path d="M300.41,125.28a7.84,7.84,0,0,1,4.66-4.85" style="fill:#263238;stroke:#263238;stroke-linecap:round;stroke-linejoin:round"></path><path d="M291.87,138.09c-.58,0-5.24-5.43-10.09-3.49s-1.36,10.09,2.33,10.87,9.9-3.3,9.9-3.3" style="fill:#fff;stroke:#263238;stroke-linecap:round;stroke-linejoin:round"></path><path d="M280.42,132.85s13.2-13.78,27.56-18.63l14.95-5s-3.5-6.79-5.63-11.65-20.77-2.52-27-.77-13.78,13.78-14.56,17.85S280.42,132.85,280.42,132.85Z" style="fill:#86C232;stroke:#263238;stroke-linecap:round;stroke-linejoin:round"></path><path d="M296.72,119.85s15.73,1.74,25.24-1,22.13-10.68,21.35-12-20.38,2.33-20.38,2.33S300.61,114.6,296.72,119.85Z" style="fill:#86C232;stroke:#263238;stroke-linecap:round;stroke-linejoin:round"></path><path d="M286.26,217.24s7.49-1.45,9.67-3.39,1.21-7.73,1.21-7.73,1.93-3.63,1.21-5.08S287,203,287,203a34.22,34.22,0,0,0,4.35-4.35c1.21-1.69-1-2.66-1.69-1.69s-4.83,5.32-5.8,6.77-1.45,7.74-1.45,7.74l-4.84,3.38,1.21,5.32Z" style="fill:#fff;stroke:#263238;stroke-linecap:round;stroke-linejoin:round"></path><path d="M278,175.08c-14.49,6.83-29.33,40.34-33.33,47.67-6.57,12,4.33,33,23,15a213.36,213.36,0,0,0,14.66-16.33l-1.66-9.67-11.34,6,10.34-10" style="fill:gray;stroke:#263238;stroke-linecap:round;stroke-linejoin:round"></path><line x1="275.67" y1="215.42" x2="277.33" y2="224.75" style="fill:none;stroke:#263238;stroke-linecap:round;stroke-linejoin:round"></line><line x1="269.32" y1="217.75" x2="253.33" y2="223.08" style="fill:none;stroke:#263238;stroke-linecap:round;stroke-linejoin:round"></line><path d="M249,222.75s7.67-4.67,16-4" style="fill:none;stroke:#263238;stroke-linecap:round;stroke-linejoin:round"></path><path d="M259,216.08s6-.66,8.33,2.34" style="fill:none;stroke:#263238;stroke-linecap:round;stroke-linejoin:round"></path><path d="M328.32,162.08l17.9,33.66s2.1-3-1.23-12.66-9-21.33-9-21.33S330,161.42,328.32,162.08Z" style="fill:#263238;stroke:#263238;stroke-linecap:round;stroke-linejoin:round"></path><path d="M306.32,460.42s-4.08-5.51-10.08-3-9,4.84-10,8.84S286,472,286,472h23a29,29,0,0,0-.5-7.25A11.47,11.47,0,0,0,306.32,460.42Z" style="fill:#263238;stroke:#263238;stroke-linecap:round;stroke-linejoin:round"></path><path d="M308.88,467h-22.8c-.73,3.45-.09,5-.09,5h23A36.82,36.82,0,0,0,308.88,467Z" style="fill:#fff;stroke:#263238;stroke-linecap:round;stroke-linejoin:round"></path><path d="M327,462.08V472h41s-.5-5.25-3.5-7.5-14.5-3.75-14.5-3.75l-1-2.33Z" style="fill:#263238;stroke:#263238;stroke-linecap:round;stroke-linejoin:round"></path><path d="M366.75,467.5H327V472h41A16.09,16.09,0,0,0,366.75,467.5Z" style="fill:#fff;stroke:#263238;stroke-linecap:round;stroke-linejoin:round"></path><polygon points="315.73 155.37 308.1 156.17 315.73 160.59 315.73 155.37" style="fill:#263238;stroke:#263238;stroke-linecap:round;stroke-linejoin:round"></polygon><path d="M286.33,444.08s3.34-2.66,6-5.33,0-1.33-2-4.67S284,421.42,284,421.42s1.31,16,1.66,17-4.33,4.33-2.33,5.66S286.33,444.08,286.33,444.08Z" style="fill:#263238;stroke:#263238;stroke-linecap:round;stroke-linejoin:round"></path><path d="M346,439.42s-11-6.67-13-12.67,13.67,6.33,14.33,13.33Z" style="fill:#263238;stroke:#263238;stroke-linecap:round;stroke-linejoin:round"></path></g><g id="freepik--character-1--inject-2"><path d="M128.36,356.07s-1.5,20-.5,30.5,6.5,43,6.5,43l11,.5s4-40.5,5-50.5,1-24.5,1-24.5Z" style="fill:#fff;stroke:#263238;stroke-linecap:round;stroke-linejoin:round"></path><path d="M146.54,418.16l-14,.08c1.06,6.51,1.87,11.33,1.87,11.33l11,.5S145.85,425.07,146.54,418.16Z" style="fill:#fff;stroke:#263238;stroke-linecap:round;stroke-linejoin:round"></path><path d="M151.28,361.73c.07-3.44.08-6,.08-6.53l-.32-.11-22.68,1s-.45,6-.69,13.15Z" style="fill:#263238;stroke:#263238;stroke-linecap:round;stroke-linejoin:round"></path><path d="M193.48,356.07s1.5,20,.5,30.5-6.5,43-6.5,43l-11,.5s-4-40.5-5-50.5-1-24.5-1-24.5Z" style="fill:#fff;stroke:#263238;stroke-linecap:round;stroke-linejoin:round"></path><path d="M175.29,418l1.19,12.07,11-.5s.84-5,1.92-11.65Z" style="fill:#fff;stroke:#263238;stroke-linecap:round;stroke-linejoin:round"></path><path d="M193.48,356.07l-23-1s0,6.63.31,14l23.05-7.32C193.65,358.35,193.48,356.07,193.48,356.07Z" style="fill:#263238;stroke:#263238;stroke-linecap:round;stroke-linejoin:round"></path><path d="M149.05,423l-17.88,1.62s2.55,25.09,2.55,25.78-3.95,5.81-6.5,10.22-.93,11.38-.93,11.38h24.38a23.93,23.93,0,0,0,2.33-9.29c0-4.64-2.09-12.08-2.09-13.47S149.05,423,149.05,423Z" style="fill:#616161;stroke:#263238;stroke-linecap:round;stroke-linejoin:round"></path><path d="M134.19,459.69c3.71,1.39,12.3,0,12.54-2.09s-1.86-6.5-1.86-6.5l-.22-27.7-9.78.89c.61,6.93,2.29,26.32,2.1,27.27C136.74,452.72,130.47,458.3,134.19,459.69Z" style="fill:#fff;stroke:#263238;stroke-linecap:round;stroke-linejoin:round"></path><polyline points="133.49 427.64 146.07 433.96 134.91 439.2 145.2 444.24 135.98 447.44 146.73 449.47 135.01 451.81 146.94 453.26 133.02 456.67 146.73 456.67 134.43 453.46 146.94 451.42 135.98 449.87 145.78 446.86 135.59 444.92 144.87 438.79 134.91 433.86 145.33 427.18" style="fill:none;stroke:#263238;stroke-linecap:round;stroke-linejoin:round"></polyline><path d="M152.48,466.84H125.79a24.09,24.09,0,0,0,.5,5.16h24.38A26.39,26.39,0,0,0,152.48,466.84Z" style="fill:#fff;stroke:#263238;stroke-linecap:round;stroke-linejoin:round"></path><line x1="150.67" y1="472" x2="151.38" y2="461.35" style="fill:none;stroke:#263238;stroke-linecap:round;stroke-linejoin:round"></line><path d="M126.42,464.1a9.58,9.58,0,0,1,6.62-4.49" style="fill:none;stroke:#263238;stroke-linecap:round;stroke-linejoin:round"></path><path d="M145.77,459.36s4.24-.5,5,7.11" style="fill:none;stroke:#263238;stroke-linecap:round;stroke-linejoin:round"></path><path d="M172.11,424.07l19.25,1s-1,23,0,25.5,3.22,4.22,9.5,6.25c8.5,2.75,13.5,5,14,8.5a32.37,32.37,0,0,1,.25,6.5h-25.5a14,14,0,0,0-4.5-2.75l-2-.5v3.25h-13s-2.5-7.5-.5-12,4.25-13.25,4.25-16.25S172.11,424.07,172.11,424.07Z" style="fill:#616161;stroke:#263238;stroke-linecap:round;stroke-linejoin:round"></path><path d="M170.11,471.82h13v-3.25l2,.5a14,14,0,0,1,4.5,2.75h25.5a32.2,32.2,0,0,0-.05-4.75h-46A29.13,29.13,0,0,0,170.11,471.82Z" style="fill:#fff;stroke:#263238;stroke-linecap:round;stroke-linejoin:round"></path><path d="M199.3,457.11s-6.24,3-5.74,9.61" style="fill:none;stroke:#263238;stroke-linecap:round;stroke-linejoin:round"></path><path d="M171.85,455.24s9.73.87,10.1,11.73" style="fill:none;stroke:#263238;stroke-linecap:round;stroke-linejoin:round"></path><path d="M199.64,456.41c-5.35-1.86-7.35-3.51-8.28-5.84-1-2.5,0-25.5,0-25.5l-4.77-.25c.08,3.59.51,21.11.73,25.8.25,5.24,8.61,7.36,9.86,7.36A2.19,2.19,0,0,0,199.64,456.41Z" style="fill:#fff;stroke:#263238;stroke-linecap:round;stroke-linejoin:round"></path><polyline points="191.56 429.28 185.57 429.04 191.19 431.78 186.44 433.78 191.06 435.27 186.32 437.77 191.06 439.77 186.2 441.64 190.94 443.38 186.94 445.63 190.94 447.25 186.69 450.87 191.69 451 188.69 454.99 192.81 453.12 191.31 456.24 195.55 454.37 194.56 457.36 197.93 455.86 197.18 457.98" style="fill:none;stroke:#263238;stroke-linecap:round;stroke-linejoin:round"></polyline><path d="M146.69,153s-47.9,9.83-55.06,14.49c-9.66,6.28-15,14.49-10.14,25.11s12.07,8.21,12.07,8.21-5.79,70.51,0,85.48,32.36,17.87,43,15,44.43-9.66,47.32-19.81-2.41-112-4.34-121.7S166.49,142.84,146.69,153Z" style="fill:#263238;stroke:#263238;stroke-linecap:round;stroke-linejoin:round"></path><path d="M81.49,192.58c4.83,10.63,12.07,8.21,12.07,8.21s-5.79,70.51,0,85.48,32.36,17.87,43,15,44.44-9.66,47.33-19.81a42.39,42.39,0,0,0,.74-8.1c-10.54,4.24-22.36,9-34.06,13.42-33.32,12.55-42-3.38-43-25.6s5.31-74.37,1-86.45-16.9-7.24-16.9-7.24C82,173.75,76.66,182,81.49,192.58Z" style="fill:#fff;stroke:#263238;stroke-linecap:round;stroke-linejoin:round"></path><path d="M93.56,200.79s11.11-1,11.59-13-6.76-16.9-14.49-11.11-4.34,15,0,15.94,10.15-8.69,6.77-10.62-5.32,1.93-5.32,4.83" style="fill:none;stroke:#263238;stroke-linecap:round;stroke-linejoin:round"></path><polygon points="122.86 261.07 114.86 359.57 208.86 359.07 193.86 256.57 122.86 261.07" style="fill:#fff;stroke:#263238;stroke-linecap:round;stroke-linejoin:round"></polygon><path d="M122.86,269.82c.75.5,72.5-3.5,72.5-3.5l-1.5-6.25-71,2.75Z" style="fill:#616161;stroke:#263238;stroke-linecap:round;stroke-linejoin:round"></path><line x1="165.86" y1="359.07" x2="165.86" y2="288.07" style="fill:none;stroke:#263238;stroke-linecap:round;stroke-linejoin:round"></line><polygon points="165.86 303.07 177.36 294.57 166.31 309.06 165.86 303.07" style="fill:#263238;stroke:#263238;stroke-linecap:round;stroke-linejoin:round"></polygon><polyline points="121.36 313.07 147.86 314.07 147.86 322.07 120.86 320.57" style="fill:none;stroke:#263238;stroke-linecap:round;stroke-linejoin:round"></polyline><polyline points="148.36 325.57 146.86 348.07 118.86 348.07 119.36 331.07" style="fill:none;stroke:#263238;stroke-linecap:round;stroke-linejoin:round"></polyline><polyline points="201.36 314.07 186.36 316.57 186.36 324.57 200.86 322.57" style="fill:none;stroke:#263238;stroke-linecap:round;stroke-linejoin:round"></polyline><polyline points="186.36 324.57 186.36 348.07 204.86 347.57" style="fill:none;stroke:#263238;stroke-linecap:round;stroke-linejoin:round"></polyline><polygon points="164.11 261.82 164.36 267.82 175.36 267.07 175.11 260.82 164.11 261.82" style="fill:#fff;stroke:#263238;stroke-linecap:round;stroke-linejoin:round"></polygon><path d="M186.36,172.07s-15-5.5-25-3a48.38,48.38,0,0,0-16,7l1,86.5,47.5-2.5Z" style="fill:#263238;stroke:#263238;stroke-linecap:round;stroke-linejoin:round"></path><path d="M192.76,173.33s5.82-.2,10.67,7.37,20,31.84,22.32,39.8,0,13.78-2.71,14.55-6.8,0-6.8,0-5-3.88-9.51-8-9.9-12.81-9.9-12.81Z" style="fill:#86C232;stroke:#263238;stroke-linecap:round;stroke-linejoin:round"></path><path d="M182.61,201.57l3.92,98.33,23-8.33s-11.67-92.67-14-104.67-2.34-15-7.34-19-9.33,7.67-9.33,7.67Z" style="fill:#86C232;stroke:#263238;stroke-linecap:round;stroke-linejoin:round"></path><path d="M189.19,183.41s7.24,32.35,7.24,33.8,7.25,26.08,7.25,26.08l-3.39-29.94-7.53-40-6.4-1.26Z" style="fill:#263238;stroke:#263238;stroke-linecap:round;stroke-linejoin:round"></path><path d="M160.86,202.57s-3.33,72.67-5.33,85.67-2.34,14.66-2.34,14.66-18-5.66-26.33-9.66-10-5-10-5,3.67-30.34,4.33-38,.67-24,.67-38.67,0-30.67,6.33-35.67,13.67-5.33,16.67-5.33S160.53,183.57,160.86,202.57Z" style="fill:#86C232;stroke:#263238;stroke-linecap:round;stroke-linejoin:round"></path><path d="M128.82,170.37,149.58,208l-36.7,51.19,6.76-1.93s34.77-44.92,35.74-49.26-20.77-39.12-20.77-39.12Z" style="fill:#263238;stroke:#263238;stroke-linecap:round;stroke-linejoin:round"></path><path d="M154.36,150.57s-13.5,1.75-17.25,7.25-6.5,10.75-3.75,14a99.27,99.27,0,0,0,15,13.25c4.5,3,12.5,17.5,12.5,17.5V185.32c0-5.5-4.75-11.5-5.75-16.5s7.25-13,13-10.5,10.25,10,10,13.5,1,7.75,2.25,13.75,2.25,16,2.25,16,8.5-13.5,11.25-22.75,1.5-18.75-8.75-25S154.36,150.57,154.36,150.57Z" style="fill:#86C232;stroke:#263238;stroke-linecap:round;stroke-linejoin:round"></path><path d="M189.53,157.25a24,24,0,0,0-4.42-3.43c-10.25-6.25-30.75-3.25-30.75-3.25s-13.5,1.75-17.25,7.25c-.44.64-.86,1.28-1.26,1.91a13.5,13.5,0,0,0,2.26,9.59c5.6,8.92,17.23,13.19,22.73,15.68-.18-5.42-4.75-11.28-5.73-16.18s7.25-13,13-10.5,10.25,10,10,13.5,1,7.75,2.25,13.75q.1.52.21,1.08c.43-.41.86-.85,1.29-1.33a32.54,32.54,0,0,0,8.5-22.25A20.93,20.93,0,0,0,189.53,157.25Z" style="fill:#fff;stroke:#263238;stroke-linecap:round;stroke-linejoin:round"></path><path d="M152.11,140.82s1.5,18,2,23,3.25,17.75,11.75,20.25,13.5-7.25,12.25-14.5-3.5-14-3.5-16.5a12.47,12.47,0,0,0-.25-3.25Z" style="fill:#fff;stroke:#263238;stroke-linecap:round;stroke-linejoin:round"></path><path d="M174.36,149.82l-22.25-9s1.14,13.7,1.77,20.51l20.72-8.74A11.64,11.64,0,0,0,174.36,149.82Z" style="fill:#263238;stroke:#263238;stroke-linecap:round;stroke-linejoin:round"></path><path d="M129.78,174.23a13.18,13.18,0,0,0-11.33,4.65c-5.12,5.71-12.21,26.4-15,39.79s-5.52,25.22-.2,25.22S132,236.4,132,236.4V219.07" style="fill:#86C232;stroke:#263238;stroke-linecap:round;stroke-linejoin:round"></path><path d="M141.83,212.67a19.55,19.55,0,0,0,3.22-5.82,5.14,5.14,0,0,1,4.72-3.74c2-.2,8.87-1.77,9.26-.39s1,2.56.4,3.15a3.35,3.35,0,0,0-.79,1.38s2.36,7.29,1.77,9.85-4.14,4.53-6.11,5.12-6.89.39-7.68.59-9.26,4.14-9.26,4.14l-1-9.26c0-.16,2.85-2.1,3.1-2.34A27.59,27.59,0,0,0,141.83,212.67Z" style="fill:#fff;stroke:#263238;stroke-linecap:round;stroke-linejoin:round"></path><line x1="126.73" y1="218.87" x2="110.97" y2="220.45" style="fill:none;stroke:#263238;stroke-linecap:round;stroke-linejoin:round"></line><polygon points="138.15 213.75 140.71 237.39 129.68 238.77 126.53 217.69 138.15 213.75" style="fill:#fff;stroke:#263238;stroke-linecap:round;stroke-linejoin:round"></polygon><polygon points="206.34 237.19 202.46 219.14 211.2 220.88 206.34 237.19" style="fill:#616161;stroke:#263238;stroke-linecap:round;stroke-linejoin:round"></polygon><path d="M204.76,210.65a18.64,18.64,0,0,1-3-5.5,4.89,4.89,0,0,0-4.48-3.55c-1.86-.19-8.39-1.68-8.77-.37s-.93,2.42-.37,3a3.18,3.18,0,0,1,.75,1.31s-2.24,6.9-1.68,9.33,3.92,4.29,5.78,4.85,6.53.37,7.28.55,8.76,3.92,8.76,3.92.93-8.75.94-8.77-2.71-2-2.94-2.21A24.8,24.8,0,0,1,204.76,210.65Z" style="fill:#fff;stroke:#263238;stroke-linecap:round;stroke-linejoin:round"></path><polygon points="207.12 211.18 206.34 237.19 219.35 235.83 217.8 212.54 207.12 211.18" style="fill:#fff;stroke:#263238;stroke-linecap:round;stroke-linejoin:round"></polygon><path d="M179.63,107.12s4,22,4,26S180,148.74,178.3,151.4s-10,4.33-13.32,3-12.65-10-14.65-13.65a27.64,27.64,0,0,1-2.67-7s-4.66,2-8.32-3.33-1.66-10.32,2-10.66l3.33,1s-6-10.32-4-15,26-6.33,31-6.33S179.63,107.12,179.63,107.12Z" style="fill:#fff;stroke:#263238;stroke-linecap:round;stroke-linejoin:round"></path><path d="M161.42,112.53l-5.31,2.35a1.46,1.46,0,0,0-.68,2l.2.35a1.44,1.44,0,0,0,1.94.58l5.12-2.71a1.45,1.45,0,0,0,.58-2h0A1.45,1.45,0,0,0,161.42,112.53Z" style="fill:#263238;stroke:#263238;stroke-linecap:round;stroke-linejoin:round"></path><path d="M171.29,111.37l0,.09a1.18,1.18,0,0,0,.87,1.46l4.1.92a1.17,1.17,0,0,0,1.43-1.14h0a1.18,1.18,0,0,0-.89-1.14l-4.07-1A1.18,1.18,0,0,0,171.29,111.37Z" style="fill:#263238;stroke:#263238;stroke-linecap:round;stroke-linejoin:round"></path><path d="M182.23,140.42s-.66-7.59-2.17-8.68-12.81-.22-12.81-.22-11.49-3.25-11.71-.65c-.16,1.91.35,12.08.83,16.83,3.21,3.08,6.8,6,8.61,6.7,3.33,1.33,11.65-.33,13.32-3,1-1.6,2.72-6.45,3.93-10.93Zm-2.61,1.3c-1.3,4.34-4.12,6.95-5.42,6.29s-2.39-4.77-3.47-5.2-2,1.73-3.26,3.69-4.77,2.6-6.29,1.3-3.26-13.24-3.26-14.76,15.84.87,15.84.87a31.53,31.53,0,0,1,5-.22C179.84,133.91,180.92,137.38,179.62,141.72Z" style="fill:gray;stroke:#545454;stroke-linecap:round;stroke-linejoin:round"></path><path d="M160.53,134.13s6.29,4.34,13,2.82" style="fill:none;stroke:#263238;stroke-linecap:round;stroke-linejoin:round"></path><path d="M170.08,115.9s3,13.24,3.25,14.32-2.17,4.56-4.77,2.61a7.62,7.62,0,0,1-3-3.91" style="fill:#fff;stroke:#263238;stroke-linecap:round;stroke-linejoin:round"></path><path d="M163.31,122.34c.35,1.15.21,2.21-.3,2.36s-1.22-.64-1.57-1.79-.22-2.2.3-2.36S163,121.2,163.31,122.34Z" style="fill:#263238"></path><path d="M176.14,120.56c.14,1.19-.18,2.21-.72,2.27s-1.08-.85-1.22-2,.19-2.21.72-2.27S176,119.37,176.14,120.56Z" style="fill:#263238"></path><path d="M139.34,92.8s-8.66,8.66-5.33,16,11.66,21,11.66,21h1.66L147,124.1s5.33-2,4.33-6.66a20.62,20.62,0,0,0-3.33-7.66s5.66,4.33,12.32,3.33,9.65-9,12-6.32,6,4.33,13,.66S201.6,85.81,194,80.82s-19.65,5-23.64,6-7-5.66-16-3A37.51,37.51,0,0,0,139.34,92.8Z" style="fill:#263238;stroke:#263238;stroke-linecap:round;stroke-linejoin:round"></path></g><g id="freepik--Floor--inject-2"><line x1="19" y1="472" x2="495" y2="472" style="fill:none;stroke:#263238;stroke-linecap:round;stroke-linejoin:round"></line></g></svg>